<?xml version="1.0" encoding="utf-8"?>
<!-- Generator: Adobe Illustrator 16.0.0, SVG Export Plug-In . SVG Version: 6.00 Build 0)  -->
<!DOCTYPE svg PUBLIC "-//W3C//DTD SVG 1.1//EN" "http://www.w3.org/Graphics/SVG/1.1/DTD/svg11.dtd">
<svg version="1.1" id="Layer_1" xmlns="http://www.w3.org/2000/svg" xmlns:xlink="http://www.w3.org/1999/xlink" x="0px" y="0px"
	 width="1200px" height="1200px" viewBox="0 0 1200 1200" enable-background="new 0 0 1200 1200" xml:space="preserve">
<g>
	<g>
		<g>
			<g>
				<path fill="#231F20" d="M600.011,1150l-11.07-13.171c-13.354-15.925-327.307-392.447-368.244-616.684
					c-25.615-140.231-2.654-258.771,66.389-342.813C353.908,96.028,462.039,51.994,599.789,50
					c138.132,1.994,246.314,46.028,313.091,127.333c69.072,84.024,92.043,202.564,66.422,342.813
					c-40.986,224.554-354.896,600.777-368.238,616.675L600.011,1150z M599.789,67.068
					c-132.326,1.921-235.982,43.798-299.514,121.096c-65.75,80.036-87.467,193.772-62.781,328.908
					c38.912,213.16,332.602,570.422,362.51,606.36c29.869-35.875,323.533-392.892,362.501-606.36
					c24.686-135.145,2.967-248.873-62.816-328.899C836.192,110.866,732.485,68.989,599.789,67.068z M600.005,646.208
					c-114.559,0-207.76-93.196-207.76-207.757s93.201-207.758,207.76-207.758c114.558,0,207.753,93.197,207.753,207.758
					S714.563,646.208,600.005,646.208z M600.005,247.77c-105.143,0-190.686,85.538-190.686,190.681
					c0,105.143,85.543,190.681,190.686,190.681c105.14,0,190.681-85.538,190.681-190.681
					C790.687,333.307,705.146,247.77,600.005,247.77z"/>
			</g>
		</g>
	</g>
</g>
</svg>
